<svg width="68" height="67" viewBox="0 0 68 67" fill="none" xmlns="http://www.w3.org/2000/svg">
<path d="M42.7124 20.6833C42.7124 20.2719 42.8759 19.8773 43.1668 19.5864C43.4577 19.2955 43.8523 19.132 44.2637 19.132H60.8104C61.2218 19.132 61.6164 19.2955 61.9073 19.5864C62.1982 19.8773 62.3616 20.2719 62.3616 20.6833C62.3616 21.0947 62.1982 21.4893 61.9073 21.7802C61.6164 22.0711 61.2218 22.2345 60.8104 22.2345H44.2637C43.8523 22.2345 43.4577 22.0711 43.1668 21.7802C42.8759 21.4893 42.7124 21.0947 42.7124 20.6833ZM64.4299 39.2983C64.4299 39.7097 64.2665 40.1043 63.9756 40.3952C63.6847 40.6861 63.2901 40.8495 62.8787 40.8495H43.8759C44.2448 42.8787 45.3135 44.7143 46.896 46.037C48.4785 47.3597 50.4746 48.0857 52.537 48.0887C53.6918 48.0959 54.8363 47.8708 55.9023 47.4266C56.9683 46.9824 57.934 46.3283 58.742 45.5033C59.0364 45.2174 59.4305 45.0575 59.8408 45.0575C60.2511 45.0575 60.6453 45.2174 60.9396 45.5033C61.0874 45.6456 61.205 45.8162 61.2853 46.005C61.3656 46.1938 61.407 46.3969 61.407 46.6021C61.407 46.8072 61.3656 47.0103 61.2853 47.1991C61.205 47.3879 61.0874 47.5586 60.9396 47.7009C58.9923 49.645 56.4311 50.8537 53.6924 51.121C50.9538 51.3883 48.2072 50.6977 45.9207 49.1669C43.6341 47.6361 41.9492 45.3597 41.1529 42.7258C40.3567 40.0919 40.4984 37.2633 41.554 34.7222C42.6095 32.181 44.5136 30.0845 46.9417 28.7899C49.3698 27.4953 52.1717 27.0827 54.8699 27.6225C57.5681 28.1622 59.9957 29.6209 61.7389 31.7499C63.4821 33.879 64.4332 36.5466 64.4299 39.2983V39.2983ZM61.1982 37.747C60.8443 35.7066 59.7814 33.8565 58.1969 32.5232C56.6124 31.1898 54.6079 30.4586 52.537 30.4586C50.4661 30.4586 48.4617 31.1898 46.8772 32.5232C45.2926 33.8565 44.2297 35.7066 43.8759 37.747H61.1982ZM36.5074 40.8495C36.5074 43.5923 35.4179 46.2227 33.4784 48.1622C31.539 50.1016 28.9086 51.1912 26.1658 51.1912H9.10203C8.69061 51.1912 8.29605 51.0278 8.00513 50.7368C7.71422 50.4459 7.55078 50.0514 7.55078 49.6399V16.5466C7.55078 16.1352 7.71422 15.7406 8.00513 15.4497C8.29605 15.1588 8.69061 14.9954 9.10203 14.9954H23.0633C24.9246 14.9951 26.7432 15.5529 28.2842 16.5967C29.8253 17.6405 31.018 19.1224 31.7083 20.8509C32.3986 22.5795 32.5548 24.4753 32.1567 26.2935C31.7586 28.1117 30.8245 29.7688 29.4751 31.0508C31.525 31.7432 33.3061 33.061 34.5676 34.8188C35.8292 36.5767 36.5076 38.6859 36.5074 40.8495V40.8495ZM10.6533 30.5079H23.0633C24.709 30.5079 26.2872 29.8541 27.4509 28.6905C28.6145 27.5268 29.2683 25.9485 29.2683 24.3029C29.2683 22.6572 28.6145 21.0789 27.4509 19.9153C26.2872 18.7516 24.709 18.0979 23.0633 18.0979H10.6533V30.5079ZM33.4049 40.8495C33.3981 38.9317 32.6333 37.0943 31.2771 35.7382C29.921 34.3821 28.0836 33.6172 26.1658 33.6104H10.6533V48.0887H26.1658C28.0836 48.0819 29.921 47.317 31.2771 45.9609C32.6333 44.6047 33.3981 42.7674 33.4049 40.8495V40.8495Z" fill="white"/>
</svg>
