<svg width="66" height="66" viewBox="0 0 66 66" fill="none" xmlns="http://www.w3.org/2000/svg">
<g clip-path="url(#clip0_203_5313)">
<path d="M55.0006 0H11.0013C8.08691 0.00924595 5.29456 1.17107 3.23379 3.23184C1.17302 5.29261 0.0111991 8.08496 0.00195312 10.9993V54.9986C0.00195312 61.0459 4.95402 65.9979 11.0013 65.9979H55.0006C61.0478 65.9979 65.9999 61.0459 65.9999 54.9986V10.9993C65.9999 4.95206 61.0478 0 55.0006 0ZM48.9843 46.3526C48.4349 47.6775 47.5636 48.8443 46.4495 49.7475C45.2883 50.6818 43.828 51.4553 42.0233 52.0039C40.229 52.5628 38.0922 52.8413 35.611 52.8413H17.9292V14.3406H36.632C40.0908 14.3406 42.8628 15.114 44.9356 16.7042C47.0311 18.2944 48.0623 20.6786 48.0623 23.8796C48.0623 25.8246 47.59 27.4787 46.6433 28.8523C45.6966 30.2259 44.3333 31.2902 42.572 32.0327V32.1626C44.9253 32.6576 46.7403 33.7734 47.9324 35.5039C49.1245 37.2343 49.7474 39.4247 49.7474 42.0667C49.7489 43.5071 49.468 44.9338 48.9203 46.266L48.9843 46.3403V46.3526ZM41.3468 36.8672C40.229 35.8359 38.6388 35.3306 36.599 35.3306H24.7066V47.3406H36.6299C38.6594 47.3406 40.2599 46.8146 41.3881 45.7504C42.5163 44.6861 43.0855 43.1722 43.0855 41.2376C43.0649 39.336 42.5163 37.8654 41.3881 36.8651H41.3345L41.3468 36.8672ZM39.703 29.0998C40.7879 28.1758 41.3241 26.8538 41.3241 25.1254C41.3241 23.1908 40.8415 21.8171 39.8639 21.0334C38.8966 20.2496 37.5003 19.8412 35.6646 19.8412H24.6653V30.4652H35.6646C37.2651 30.4652 38.6408 29.9929 39.6927 29.1019L39.703 29.0998Z" fill="white"/>
</g>
<defs>
<clipPath id="clip0_203_5313">
<rect width="66" height="66" fill="white"/>
</clipPath>
</defs>
</svg>
