<svg width="67" height="66" viewBox="0 0 67 66" fill="none" xmlns="http://www.w3.org/2000/svg">
<g clip-path="url(#clip0_203_4538)">
<path d="M20.9434 0H28.1403V2.9645H23.9528V5.929H28.1403V8.8935H20.9434V0ZM29.578 0H36.7777V2.5795H32.5902V3.09375H36.7777V9.02275H29.578V6.31675H33.7655V5.79975H29.578V0ZM38.2182 0H45.4123V2.5795H41.2248V3.09375H45.4123V9.02275H38.2182V6.31675H42.4057V5.79975H38.2182V0Z" fill="white"/>
<path fill-rule="evenodd" clip-rule="evenodd" d="M33.4749 66L14.0895 60.698L8.375 12.9717H58.625L52.9133 60.6925L33.4749 66ZM19.6729 34.5757L20.2061 40.4277H40.8002L40.1107 48.0178L33.4833 49.7833H33.4777L26.8614 48.0232L26.4371 43.3565H20.4713L21.3032 52.547L33.4749 55.8745L45.6661 52.547L47.1512 36.146L47.2964 34.5757L48.3684 22.726H18.6037L19.1452 28.5807H41.8583L41.3167 34.5757H19.6729V34.5757Z" fill="white"/>
</g>
<defs>
<clipPath id="clip0_203_4538">
<rect width="67" height="66" fill="white"/>
</clipPath>
</defs>
</svg>
