<svg width="69" height="68" viewBox="0 0 69 68" fill="none" xmlns="http://www.w3.org/2000/svg">
<path d="M15.5647 12.1428H53.2076C55.2236 12.1427 57.1633 12.914 58.6287 14.2986C60.0941 15.6832 60.9742 17.576 61.0883 19.5888L61.1005 20.0357V47.9643C61.1006 49.9803 60.3292 51.92 58.9447 53.3854C57.5601 54.8508 55.6673 55.7308 53.6545 55.845L53.2076 55.8571H15.5647C13.5487 55.8572 11.609 55.0859 10.1436 53.7013C8.6782 52.3168 7.79816 50.4239 7.68402 48.4111L7.67188 47.9643V20.0357C7.67174 18.0196 8.44308 16.08 9.82765 14.6145C11.2122 13.1491 13.1051 12.2691 15.1179 12.155L15.5647 12.1428H53.2076H15.5647ZM57.4576 26.4835L35.2264 38.0435C35.0111 38.1554 34.7756 38.2232 34.5337 38.2428C34.2918 38.2624 34.0484 38.2335 33.8179 38.1577L33.5459 38.0435L11.3147 26.4835V47.9643C11.3148 49.0309 11.7159 50.0585 12.4384 50.8431C13.1609 51.6277 14.152 52.1119 15.215 52.1997L15.5647 52.2143H53.2076C54.2746 52.2142 55.3025 51.8127 56.0872 51.0897C56.8718 50.3667 57.3558 49.375 57.443 48.3115L57.4576 47.9643V26.4835V26.4835ZM53.2076 15.7857H15.5647C14.4981 15.7857 13.4705 16.1868 12.6859 16.9093C11.9013 17.6319 11.4171 18.623 11.3293 19.686L11.3147 20.0357V22.3768L34.3862 34.374L57.4576 22.3768V20.0357C57.4575 18.9687 57.0561 17.9408 56.3331 17.1561C55.61 16.3714 54.6183 15.8874 53.5549 15.8003L53.2076 15.7857Z" fill="white"/>
</svg>
