<svg width="300" height="300" viewBox="0 0 300 300" fill="none" xmlns="http://www.w3.org/2000/svg">
<g filter="url(#filter0_d_1_2)">
<path d="M108.3 196.687C111.362 198.85 115.012 200 118.75 199.987V199.938C122.278 199.943 125.731 198.914 128.679 196.976C131.628 195.039 133.943 192.278 135.337 189.038L143 165.738C144.77 160.46 147.744 155.666 151.686 151.735C155.628 147.804 160.43 144.843 165.712 143.087L187.937 135.863C191.524 134.611 194.623 132.258 196.793 129.141C198.963 126.023 200.092 122.3 200.02 118.502C199.948 114.704 198.678 111.026 196.392 107.993C194.105 104.96 190.919 102.727 187.287 101.612L165.35 94.4875C160.043 92.7226 155.221 89.7438 151.267 85.7879C147.313 81.832 144.337 77.0081 142.575 71.7L135.35 49.4875C134.09 45.9497 131.759 42.8922 128.682 40.7399C125.604 38.5876 121.933 37.4473 118.177 37.4775C114.422 37.5078 110.769 38.707 107.727 40.9086C104.684 43.1102 102.403 46.2048 101.2 49.7625L93.9125 72.1625C92.1552 77.3158 89.2507 82.0028 85.4181 85.8701C81.5855 89.7374 76.9248 92.6839 71.7875 94.4875L49.575 101.612C46.0099 102.846 42.9209 105.166 40.7421 108.245C38.5633 111.325 37.4041 115.01 37.4276 118.782C37.451 122.555 38.6559 126.225 40.8728 129.277C43.0897 132.33 46.2073 134.611 49.7875 135.8L71.7125 142.912C77.0185 144.691 81.8383 147.679 85.791 151.64C89.7437 155.601 92.7209 160.428 94.4875 165.738L101.713 187.925C102.95 191.463 105.25 194.525 108.3 196.687ZM204.137 259.775C201.754 258.074 199.962 255.67 199.012 252.9L194.913 240.325C194.125 237.928 192.786 235.748 191.004 233.962C189.221 232.175 187.045 230.831 184.65 230.038L172.263 226C169.427 225.043 166.961 223.224 165.211 220.797C163.46 218.369 162.512 215.455 162.5 212.462C162.502 209.489 163.432 206.591 165.159 204.171C166.887 201.751 169.326 199.93 172.137 198.963L184.713 194.887C187.052 194.056 189.169 192.7 190.902 190.923C192.636 189.147 193.939 186.996 194.712 184.638L198.762 172.25C199.715 169.447 201.515 167.009 203.914 165.274C206.312 163.538 209.19 162.59 212.151 162.562C215.111 162.533 218.007 163.424 220.439 165.113C222.871 166.801 224.718 169.204 225.725 171.988L229.837 184.662C230.643 187.039 231.987 189.196 233.765 190.965C235.544 192.735 237.708 194.069 240.087 194.862L252.487 198.9C255.346 199.794 257.85 201.565 259.646 203.962C261.441 206.359 262.437 209.261 262.491 212.255C262.544 215.25 261.654 218.185 259.946 220.646C258.238 223.106 255.799 224.966 252.975 225.962L240.3 230.075C237.917 230.879 235.753 232.226 233.978 234.009C232.204 235.792 230.868 237.963 230.075 240.35L226.05 252.712C225.075 255.587 223.225 258.087 220.738 259.837C218.311 261.563 215.405 262.484 212.427 262.473C209.45 262.462 206.551 261.518 204.137 259.775Z" fill="#9D22DB"/>
</g>
<defs>
<filter id="filter0_d_1_2" x="-4" y="0" width="308" height="308" filterUnits="userSpaceOnUse" color-interpolation-filters="sRGB">
<feFlood flood-opacity="0" result="BackgroundImageFix"/>
<feColorMatrix in="SourceAlpha" type="matrix" values="0 0 0 0 0 0 0 0 0 0 0 0 0 0 0 0 0 0 127 0" result="hardAlpha"/>
<feOffset dy="4"/>
<feGaussianBlur stdDeviation="2"/>
<feComposite in2="hardAlpha" operator="out"/>
<feColorMatrix type="matrix" values="0 0 0 0 0 0 0 0 0 0 0 0 0 0 0 0 0 0 0.25 0"/>
<feBlend mode="normal" in2="BackgroundImageFix" result="effect1_dropShadow_1_2"/>
<feBlend mode="normal" in="SourceGraphic" in2="effect1_dropShadow_1_2" result="shape"/>
</filter>
</defs>
</svg>
