<svg width="61" height="61" viewBox="0 0 61 61" fill="none" xmlns="http://www.w3.org/2000/svg">
<g clip-path="url(#clip0_203_4529)">
<path d="M30.4999 30.5C30.4999 16.9485 50.8339 16.9485 50.8339 30.5C50.8339 44.0515 30.4999 44.0515 30.4999 30.5ZM10.166 50.834C10.1652 49.4987 10.4277 48.1765 10.9383 46.9427C11.4489 45.709 12.1977 44.588 13.1419 43.6438C14.086 42.6997 15.207 41.9509 16.4407 41.4403C17.6745 40.9296 18.9968 40.6672 20.332 40.6679H30.498V50.834C30.498 64.3855 10.1641 64.3855 10.1641 50.834H10.166ZM30.4999 1.57705e-05V20.334H40.666C54.2175 20.334 54.2175 1.57705e-05 40.666 1.57705e-05H30.4999ZM10.166 10.166C10.1652 11.5013 10.4277 12.8236 10.9383 14.0573C11.4489 15.291 12.1977 16.412 13.1419 17.3562C14.086 18.3003 15.207 19.0491 16.4407 19.5598C17.6745 20.0704 18.9968 20.3328 20.332 20.3321H30.498V-0.00189048H20.332C18.9968 -0.00264223 17.6745 0.259797 16.4407 0.770421C15.207 1.28105 14.086 2.02984 13.1419 2.97399C12.1977 3.91815 11.4489 5.03914 10.9383 6.27288C10.4277 7.50662 10.1652 8.82891 10.166 10.1641V10.166ZM10.166 30.5C10.1652 31.8352 10.4277 33.1575 10.9383 34.3913C11.4489 35.625 12.1977 36.746 13.1419 37.6902C14.086 38.6343 15.207 39.3831 16.4407 39.8937C17.6745 40.4044 18.9968 40.6668 20.332 40.666H30.498V20.3321H20.332C18.9968 20.3313 17.6745 20.5938 16.4407 21.1044C15.207 21.615 14.086 22.3638 13.1419 23.308C12.1977 24.2521 11.4489 25.3731 10.9383 26.6068C10.4277 27.8406 10.1652 29.1629 10.166 30.4981V30.5Z" fill="white"/>
</g>
<defs>
<clipPath id="clip0_203_4529">
<rect width="61" height="61" fill="white"/>
</clipPath>
</defs>
</svg>
