<svg width="76" height="76" viewBox="0 0 76 76" fill="none" xmlns="http://www.w3.org/2000/svg">
<g clip-path="url(#clip0_203_4543)">
<path d="M74.5659 34.6133L41.3824 1.43451C40.9281 0.97994 40.3887 0.619345 39.7949 0.373322C39.2012 0.1273 38.5648 0.000671387 37.9221 0.000671387C37.2794 0.000671387 36.643 0.1273 36.0492 0.373322C35.4555 0.619345 34.916 0.97994 34.4617 1.43451L27.5742 8.32201L36.3142 17.062C37.345 16.7101 38.4539 16.655 39.5145 16.9031C40.575 17.1512 41.5445 17.6925 42.3122 18.4651C43.0799 19.2378 43.6149 20.2107 43.8562 21.2728C44.0974 22.335 44.0352 23.4435 43.6767 24.472L52.0984 32.8985C53.3444 32.4598 54.7027 32.4585 55.9495 32.8947C57.1963 33.331 58.2575 34.1789 58.9581 35.2987C59.6588 36.4185 59.9572 37.7436 59.8043 39.0556C59.6513 40.3677 59.0561 41.5886 58.1167 42.5173C57.1657 43.4741 55.9119 44.0711 54.5696 44.2062C53.2274 44.3414 51.8798 44.0063 50.7571 43.2582C49.6344 42.5102 48.8063 41.3955 48.4142 40.1047C48.0221 38.8138 48.0903 37.4269 48.6072 36.1808L40.7554 28.3243V49.001C41.9489 49.5918 42.9039 50.5737 43.4611 51.7832C44.0184 52.9927 44.1443 54.3567 43.8178 55.6477C43.4913 56.9388 42.7323 58.0789 41.6671 58.8782C40.6019 59.6774 39.295 60.0874 37.9641 60.0399C36.6333 59.9924 35.359 59.4901 34.3535 58.617C33.3481 57.7438 32.6723 56.5524 32.4387 55.2413C32.2052 53.9303 32.4281 52.5788 33.0702 51.4121C33.7123 50.2455 34.7349 49.3341 35.9674 48.83V27.9633C35.2563 27.6719 34.6099 27.2426 34.0655 26.7002C33.521 26.1578 33.0893 25.513 32.7952 24.803C32.5011 24.093 32.3505 23.3318 32.352 22.5633C32.3535 21.7947 32.5071 21.0341 32.8039 20.3253L24.1922 11.7088L1.43969 34.4613C0.985128 34.9156 0.624533 35.4551 0.37851 36.0488C0.132488 36.6425 0.00585938 37.2789 0.00585938 37.9216C0.00585938 38.5643 0.132488 39.2007 0.37851 39.7945C0.624533 40.3882 0.985128 40.9277 1.43969 41.382L34.6232 74.5655C35.0775 75.0201 35.617 75.3807 36.2107 75.6267C36.8045 75.8727 37.4409 75.9993 38.0836 75.9993C38.7263 75.9993 39.3627 75.8727 39.9564 75.6267C40.5502 75.3807 41.0896 75.0201 41.5439 74.5655L74.5707 41.5388C75.4876 40.6206 76.0026 39.376 76.0026 38.0784C76.0026 36.7808 75.4876 35.5362 74.5707 34.618" fill="white"/>
</g>
<defs>
<clipPath id="clip0_203_4543">
<rect width="76" height="76" fill="white"/>
</clipPath>
</defs>
</svg>
