<svg width="60" height="60" viewBox="0 0 60 60" fill="none" xmlns="http://www.w3.org/2000/svg">
<g clip-path="url(#clip0_203_4589)">
<path fill-rule="evenodd" clip-rule="evenodd" d="M30.3729 4.51393C15.5045 4.51393 3.46739 16.4897 3.46739 31.2377C3.46739 42.0667 9.95743 51.3856 19.2984 55.5772C20.2757 56.0168 21.2309 55.8424 21.9774 55.2825C22.3902 54.9611 22.723 54.5483 22.9496 54.0767C23.1763 53.6051 23.2906 53.0874 23.2837 52.5642V51.1646L19.9515 50.7127C19.9269 50.7094 19.9023 50.7053 19.8779 50.7005C18.0411 50.342 16.8011 49.6962 15.8925 48.7655C15.1288 47.9822 14.6623 47.0442 14.2669 46.2486L14.1294 45.9711C13.764 45.2089 13.365 44.4633 12.9336 43.7365C12.6021 43.211 12.3442 42.9409 12.0889 42.7715C11.4406 42.3418 10.8169 41.6125 10.8169 40.7015C10.8147 40.4392 10.8708 40.1798 10.9812 39.942C11.0916 39.7042 11.2536 39.4939 11.4553 39.3263C11.8361 39.0249 12.3106 38.8667 12.7961 38.8794C13.3412 38.8794 13.8544 39.0464 14.2817 39.2379C14.7188 39.4344 15.1534 39.6947 15.5586 39.9648C16.5457 40.6229 17.5181 41.4013 18.3407 42.3614C19.1977 43.3584 19.8042 43.9919 20.7177 44.122C21.4691 44.2301 22.2352 44.2325 22.8319 44.2055C22.9148 43.7331 23.0516 43.2717 23.2395 42.8304C22.5108 42.6603 21.7918 42.4505 21.086 42.2018C19.4801 41.6321 17.69 40.7457 16.4868 39.4025C15.1657 37.9242 14.348 36.6056 13.8912 35.0635C13.4468 33.5607 13.3731 31.9327 13.3731 29.9289C13.3731 26.8595 14.7016 24.2738 15.6985 22.9011C15.3155 21.6994 15.0402 20.4659 14.8759 19.2153C14.7671 18.4267 14.7679 17.6268 14.8784 16.8384C15.0011 16.1189 15.3081 15.2349 16.116 14.702C16.8944 14.1839 17.8078 14.206 18.52 14.3386C19.2591 14.4786 20.0277 14.7855 20.7349 15.1367C21.8865 15.7064 23.0308 16.4676 23.8878 17.1134C25.366 16.6788 27.9812 16.1189 30.3459 16.0673H30.3999C32.7671 16.1189 35.2644 16.6788 36.7058 17.1109C37.5652 16.4676 38.7071 15.7039 39.8563 15.1367C40.5635 14.7855 41.3296 14.4786 42.0712 14.3386C42.7833 14.206 43.6968 14.1839 44.4776 14.6996C45.2831 15.2349 45.5925 16.1189 45.7128 16.8384C45.838 17.5873 45.8085 18.4247 45.7128 19.2153C45.5492 20.4658 45.2747 21.6993 44.8926 22.9011C45.8896 24.2762 47.218 26.8619 47.218 29.9289C47.218 31.9327 47.1444 33.5607 46.7024 35.061C46.2432 36.608 45.4255 37.9242 44.1044 39.4025C42.9012 40.7457 41.1111 41.6321 39.5051 42.2018C38.6527 42.5014 37.7815 42.745 36.8973 42.9311C37.1994 43.8446 37.3074 44.5837 37.3074 45.0085V52.5962C37.3074 53.7503 37.8452 54.735 38.6089 55.3096C39.3504 55.8719 40.3032 56.0462 41.2805 55.619C50.7098 51.4642 57.276 42.1208 57.276 31.2353C57.276 16.4897 45.2438 4.51393 30.3729 4.51393ZM24.1751 46.6635C23.5367 46.7544 24.1726 46.6635 24.1726 46.6635H24.1653L24.1456 46.6685L24.0744 46.6783C23.7097 46.7211 23.3436 46.7514 22.9768 46.7691C22.1029 46.8147 21.2266 46.7793 20.3592 46.6635C18.4168 46.3885 17.2357 45.0134 16.472 44.1196L16.3984 44.0361C16.1487 43.7464 15.8804 43.4733 15.5954 43.2184C15.8483 43.6849 16.1111 44.2055 16.3934 44.7654L16.418 44.8145L16.5432 45.0699C16.973 45.9244 17.2553 46.4941 17.7244 46.9705C18.1811 47.437 18.8932 47.8889 20.3322 48.1737L24.7374 48.7704C25.0451 48.812 25.3272 48.9639 25.5313 49.1979C25.7355 49.4318 25.8478 49.7319 25.8473 50.0424V52.5642C25.8473 54.5287 24.9265 56.2795 23.5146 57.3403C22.7732 57.9067 21.8914 58.2601 20.964 58.3622C20.0367 58.4643 19.0991 58.3113 18.2523 57.9198C8.03227 53.3353 0.90625 43.1275 0.90625 31.2377C0.90625 15.0507 14.1098 1.94788 30.3729 1.94788C46.6361 1.94788 59.8396 15.0507 59.8396 31.2377C59.8396 43.1889 52.6227 53.4237 42.3143 57.9689C41.4668 58.353 40.5308 58.4995 39.6065 58.3926C38.6822 58.2858 37.8043 57.9297 37.0668 57.3624C36.3375 56.801 35.7483 56.0782 35.3452 55.2509C34.9422 54.4235 34.7363 53.514 34.7438 52.5937V45.006C34.7438 44.8342 34.6235 43.8421 33.9531 42.5087C33.8606 42.3239 33.814 42.1194 33.8172 41.9127C33.8205 41.7059 33.8735 41.503 33.9718 41.3211C34.0701 41.1393 34.2107 40.9837 34.3819 40.8677C34.553 40.7517 34.7496 40.6787 34.955 40.6548C36.2139 40.497 37.4521 40.2039 38.6481 39.7806C40.1067 39.265 41.4155 38.5578 42.194 37.6885C43.3505 36.3969 43.9276 35.4048 44.2444 34.3317C44.5734 33.2194 44.6569 31.9253 44.6569 29.9289C44.6569 27.1271 43.1836 24.7723 42.5058 24.0135C42.352 23.842 42.2471 23.6323 42.2022 23.4064C42.1572 23.1804 42.1739 22.9465 42.2504 22.7292C42.6869 21.4921 42.9955 20.2134 43.1713 18.9133C43.2499 18.238 43.2548 17.6733 43.186 17.2656C43.1706 17.1166 43.1255 16.9722 43.0534 16.8408C42.8844 16.8116 42.711 16.8191 42.5451 16.8629C42.1277 16.9415 41.5948 17.1379 40.9907 17.4375C39.7875 18.0318 38.5352 18.9109 37.7592 19.5395C37.5881 19.6783 37.384 19.7705 37.1667 19.8071C36.9494 19.8436 36.7263 19.8234 36.5192 19.7482C34.531 19.0978 32.4629 18.7236 30.3729 18.6358C27.9002 18.6948 25.0468 19.3971 24.072 19.7482C23.8648 19.8234 23.6418 19.8436 23.4245 19.8071C23.2072 19.7705 23.003 19.6783 22.8319 19.5395C21.8284 18.7316 20.7457 18.0273 19.6004 17.4375C19.1086 17.1793 18.5852 16.9861 18.0436 16.8629C17.8785 16.8195 17.706 16.8119 17.5377 16.8408C17.4656 16.9721 17.4205 17.1166 17.4051 17.2656C17.3364 17.6733 17.3413 18.238 17.4199 18.9133C17.5968 20.2132 17.9054 21.4917 18.3407 22.7292C18.4954 23.1712 18.3996 23.6624 18.0853 24.0135C17.4076 24.7723 15.9343 27.1271 15.9343 29.9289C15.9343 31.9228 16.0177 33.2194 16.3468 34.3317C16.666 35.4048 17.2406 36.3944 18.3947 37.6885C19.1756 38.5578 20.4819 39.265 21.943 39.7806C23.1383 40.2036 24.3757 40.4967 25.6337 40.6548C25.8925 40.6826 26.1368 40.7885 26.3339 40.9585C26.5311 41.1285 26.6718 41.3544 26.7374 41.6064C26.803 41.8583 26.7903 42.1242 26.701 42.3687C26.6118 42.6133 26.4502 42.8248 26.2378 42.9753C25.8326 43.2651 25.5649 43.7856 25.4152 44.3872C25.3378 44.697 25.2917 45.0137 25.2776 45.3326V45.3793C25.2808 45.6906 25.1707 45.9925 24.9679 46.2287C24.7651 46.465 24.4833 46.6195 24.1751 46.6635V46.6635Z" fill="white"/>
</g>
<defs>
<clipPath id="clip0_203_4589">
<rect width="58.9333" height="58.9333" fill="white" transform="translate(0.90625 0.720093)"/>
</clipPath>
</defs>
</svg>
