<svg width="72" height="72" viewBox="0 0 72 72" fill="none" xmlns="http://www.w3.org/2000/svg">
<path d="M15.2402 0H18.4862V3.207H21.4562V0H24.7022V9.708H21.4562V6.459H18.4862V9.708H15.2432V0H15.2402ZM28.9682 3.219H26.1122V0H35.0732V3.219H32.2142V9.708H28.9682V3.219V3.219ZM36.4952 0H39.8792L41.9612 3.411L44.0402 0H47.4242V9.708H44.1932V4.896L41.9612 8.349H41.9042L39.6692 4.899V9.708H36.4952V0V0ZM49.0382 0H52.2872V6.501H56.8472V9.711H49.0382V0V0Z" fill="white"/>
<path fill-rule="evenodd" clip-rule="evenodd" d="M15.138 66.216L9 14.151H63L56.859 66.21L35.97 72L15.138 66.216ZM27.549 37.716L26.967 31.176H51.402L51.972 24.792H19.992L21.714 44.103H43.845L43.104 52.383L35.982 54.309H35.976L28.866 52.389L28.41 47.298H21.996L22.89 57.324L35.97 60.954L49.071 57.324L50.667 39.432L50.823 37.719H27.549V37.716Z" fill="white"/>
</svg>
