<svg width="60" height="61" viewBox="0 0 60 61" fill="none" xmlns="http://www.w3.org/2000/svg">
<path d="M29.9205 20.2616C27.8863 20.2616 25.8978 20.8648 24.2064 21.9949C22.5151 23.125 21.1968 24.7313 20.4184 26.6107C19.6399 28.49 19.4362 30.558 19.8331 32.5531C20.2299 34.5482 21.2095 36.3808 22.6479 37.8192C24.0863 39.2575 25.9189 40.2371 27.914 40.6339C29.9091 41.0308 31.977 40.8271 33.8564 40.0487C35.7357 39.2702 37.342 37.952 38.4721 36.2606C39.6023 34.5692 40.2055 32.5807 40.2055 30.5466C40.2055 27.8188 39.1219 25.2028 37.1931 23.274C35.2642 21.3452 32.6482 20.2616 29.9205 20.2616ZM29.9205 38.9616C28.2561 38.9616 26.6292 38.468 25.2453 37.5434C23.8615 36.6187 22.7829 35.3045 22.146 33.7668C21.5091 32.2292 21.3425 30.5372 21.6672 28.9049C21.9919 27.2725 22.7933 25.7731 23.9702 24.5963C25.147 23.4194 26.6464 22.618 28.2788 22.2933C29.9111 21.9686 31.6031 22.1352 33.1407 22.7721C34.6784 23.409 35.9926 24.4876 36.9173 25.8714C37.8419 27.2553 38.3355 28.8822 38.3355 30.5466C38.3355 32.7784 37.4489 34.9188 35.8708 36.4969C34.2927 38.075 32.1523 38.9616 29.9205 38.9616V38.9616ZM40.2055 8.10657H19.6355C16.4118 8.10657 13.3201 9.38718 11.0406 11.6667C8.76108 13.9462 7.48047 17.0379 7.48047 20.2616V40.8316C7.48047 42.4278 7.79487 44.0084 8.40571 45.4831C9.01656 46.9578 9.91189 48.2978 11.0406 49.4264C13.3201 51.706 16.4118 52.9866 19.6355 52.9866H40.2055C41.8017 52.9866 43.3823 52.6722 44.857 52.0613C46.3317 51.4505 47.6717 50.5551 48.8003 49.4264C49.929 48.2978 50.8244 46.9578 51.4352 45.4831C52.0461 44.0084 52.3605 42.4278 52.3605 40.8316V20.2616C52.3605 18.6653 52.0461 17.0848 51.4352 15.6101C50.8244 14.1353 49.929 12.7954 48.8003 11.6667C47.6717 10.538 46.3317 9.64266 44.857 9.03181C43.3823 8.42097 41.8017 8.10657 40.2055 8.10657V8.10657ZM50.4905 40.8316C50.4905 43.5593 49.4069 46.1753 47.4781 48.1042C45.5492 50.033 42.9332 51.1166 40.2055 51.1166H19.6355C16.9077 51.1166 14.2917 50.033 12.3629 48.1042C10.4341 46.1753 9.35047 43.5593 9.35047 40.8316V20.2616C9.35047 17.5338 10.4341 14.9178 12.3629 12.989C14.2917 11.0602 16.9077 9.97657 19.6355 9.97657H40.2055C42.9332 9.97657 45.5492 11.0602 47.4781 12.989C49.4069 14.9178 50.4905 17.5338 50.4905 20.2616V40.8316ZM43.9455 18.3916C43.9455 18.7614 43.8358 19.123 43.6303 19.4305C43.4248 19.738 43.1328 19.9777 42.7911 20.1192C42.4494 20.2608 42.0734 20.2978 41.7106 20.2256C41.3479 20.1535 41.0147 19.9754 40.7532 19.7139C40.4917 19.4523 40.3136 19.1191 40.2414 18.7564C40.1692 18.3936 40.2063 18.0176 40.3478 17.6759C40.4893 17.3343 40.729 17.0422 41.0365 16.8367C41.3441 16.6312 41.7056 16.5216 42.0755 16.5216C42.5714 16.5216 43.0471 16.7186 43.3978 17.0693C43.7485 17.42 43.9455 17.8956 43.9455 18.3916Z" fill="white"/>
</svg>
