<svg width="55" height="55" viewBox="0 0 55 55" fill="none" xmlns="http://www.w3.org/2000/svg">
<path d="M0 0H55V55H0V0ZM50.4946 41.8825C50.0935 39.3731 48.4596 37.2648 43.6127 35.2985C41.926 34.5079 40.0515 33.9579 39.4946 32.686C39.286 31.9298 39.254 31.5173 39.3892 31.0704C39.7329 29.59 41.486 29.1454 42.861 29.5579C43.7548 29.8329 44.5798 30.5204 45.0977 31.6204C47.4673 30.0713 47.4673 30.0713 49.1196 29.0423C48.5008 28.0798 48.1938 27.665 47.7767 27.2548C46.3329 25.6392 44.4102 24.8142 41.2821 24.8852L39.6665 25.0892C38.1173 25.4673 36.6415 26.2923 35.7477 27.3923C33.1352 30.3508 33.8892 35.5071 37.0517 37.6383C40.1798 39.9758 44.754 40.4892 45.3383 42.6915C45.8883 45.3727 43.3446 46.2321 40.8329 45.9227C38.9744 45.5102 37.9454 44.5798 36.811 42.861L32.6173 45.2696C33.0985 46.3696 33.6485 46.8485 34.4735 47.811C38.461 51.8352 48.4298 51.629 50.2196 45.5102C50.286 45.304 50.7696 43.8946 50.3892 41.729L50.4946 41.8825V41.8825ZM29.9085 25.2794H24.7569C24.7569 29.7206 24.7363 34.1344 24.7363 38.5825C24.7363 41.4058 24.8806 43.9977 24.42 44.7952C23.6638 46.3742 21.7158 46.1725 20.8313 45.8952C19.9238 45.446 19.4631 44.8273 18.9292 43.9358C18.7848 43.6952 18.6771 43.4867 18.6381 43.4867L14.4558 46.0648C15.1548 47.5085 16.1746 48.7506 17.49 49.5413C19.4494 50.71 22.0825 51.0881 24.8394 50.4694C26.6338 49.9515 28.1806 48.8858 28.9896 47.2358C30.1583 45.1046 29.9108 42.4921 29.8994 39.5679C29.9269 34.8608 29.8994 30.1515 29.8994 25.4077L29.9085 25.2794V25.2794Z" fill="white"/>
</svg>
