<svg width="67" height="68" viewBox="0 0 67 68" fill="none" xmlns="http://www.w3.org/2000/svg">
<g clip-path="url(#clip0_203_4545)">
<path d="M37.1321 15.8695C35.3789 11.5402 35.6246 6.66967 38.1566 2.75117L40.0493 0C36.5486 6.65833 39.8818 14.8353 45.2418 19.1222C46.6761 20.2615 48.275 21.1694 49.9821 21.8138C50.4399 21.9838 50.9592 22.1652 51.4338 22.287C57.4247 23.817 62.3073 22.7602 65.2134 18.3515C65.1241 18.4875 65.0096 18.7028 64.8645 18.9748C63.5691 21.4115 59.7781 28.543 48.7845 26.3047C48.5751 26.2622 48.3741 26.1913 48.1731 26.1262L47.9944 26.0638L47.866 26.0213C47.8068 26.0005 47.7472 25.9807 47.6873 25.9618C47.5245 25.905 47.3626 25.8455 47.2016 25.7833C42.7768 24.072 38.9829 20.468 37.1321 15.8695V15.8695Z" fill="white"/>
<path d="M22.6688 8.40364C18.378 14.9061 18.6125 23.613 21.9597 30.4923C22.5786 31.7724 23.2896 33.0045 24.087 34.1785C24.6705 35.0653 25.3125 36.0485 26.0635 36.7341C26.3734 37.094 26.6972 37.4425 27.0266 37.7853L27.2165 37.9836L27.2807 38.0488C27.6139 38.3908 27.9556 38.7243 28.3052 39.049L28.308 39.0518L28.3136 39.0575C28.7356 39.445 29.1685 39.8201 29.6117 40.1823L29.7234 40.273C30.1142 40.5903 30.5134 40.902 30.9238 41.1995L30.9405 41.2108L30.9601 41.225C31.0913 41.3213 31.2253 41.4148 31.3593 41.5055L31.5072 41.6075C31.5949 41.6663 31.6814 41.7268 31.7669 41.7888C32.06 41.9871 32.3559 42.177 32.6574 42.364L32.7412 42.4121L32.783 42.4405C33.1063 42.6361 33.433 42.826 33.7629 43.01L33.8495 43.0553L33.9611 43.1176C34.1063 43.197 34.2515 43.2791 34.4022 43.3556L34.486 43.3981C34.9178 43.6213 35.3553 43.8329 35.798 44.0328L35.8874 44.0696C36.3029 44.2554 36.7227 44.4311 37.1464 44.5966L37.2302 44.6278C37.5177 44.7411 37.8052 44.8431 38.0956 44.9451L38.2407 44.9961L38.4864 45.0783C38.5953 45.1123 38.7042 45.152 38.8102 45.1888C39.1145 45.2965 39.4188 45.4013 39.7371 45.458C61.8862 49.3226 67.0005 31.3593 67.0005 31.3593C62.3915 38.352 53.4637 41.6896 43.9385 39.083C43.5168 38.966 43.0979 38.8384 42.6823 38.7005C42.5698 38.6653 42.4581 38.6275 42.3473 38.5871L42.3054 38.573C42.0113 38.4728 41.719 38.367 41.4288 38.2556L41.4205 38.25C40.9387 38.065 40.4621 37.8665 39.9911 37.655L39.8348 37.5841C39.2859 37.3323 38.7459 37.0611 38.2156 36.771L38.0984 36.7086L37.7634 36.5273C37.4575 36.3539 37.155 36.1744 36.8561 35.989C36.2656 35.623 35.6883 35.2355 35.1252 34.8273C34.7186 34.5294 34.3193 34.2214 33.9276 33.9036L33.8299 33.8215C33.7729 33.7746 33.7161 33.7274 33.6596 33.6798C29.4889 30.2118 26.1835 25.4716 24.6146 20.0996C22.9675 14.5236 23.3221 8.26764 26.1752 3.19031L22.6688 8.40364Z" fill="white"/>
<path d="M4.25546 15.9715C-1.67404 24.9532 -0.937043 36.6407 3.59383 46.1833C3.67758 46.3675 3.76971 46.5488 3.85904 46.7273L3.92604 46.8633L4.00979 47.0305C4.08001 47.1791 4.15448 47.3255 4.23312 47.4697L4.26942 47.5405L4.46483 47.9088L4.50671 47.9853C4.64629 48.246 4.79146 48.5067 4.93942 48.7673L4.98687 48.8523C5.21059 49.2484 5.44424 49.6386 5.68758 50.0225L5.73783 50.1075L5.90254 50.371C6.13704 50.7393 6.37712 51.1105 6.62837 51.476V51.4788C6.63432 51.4878 6.64085 51.4963 6.64792 51.5043L6.71492 51.5978L6.77075 51.6772C6.9885 51.9888 7.20904 52.3005 7.43517 52.6065L7.68642 52.9408C8.23362 53.6606 8.7996 54.3654 9.38375 55.0545L9.4005 55.0743L9.41446 55.0885L9.434 55.1112C10.0263 55.7884 10.6389 56.447 11.2709 57.086L11.3547 57.171L11.5529 57.3693C11.8692 57.6832 12.1913 57.9911 12.5188 58.293L12.6109 58.378L12.6835 58.4403C13.0329 58.7569 13.3865 59.0686 13.7443 59.3753L13.9007 59.5085C14.138 59.7068 14.378 59.9052 14.6209 60.0978L15.0034 60.4067C15.2714 60.6135 15.5394 60.8175 15.8102 61.0158L15.8548 61.0498L16.1061 61.2368L16.1842 61.2935C16.4299 61.4748 16.6784 61.6448 16.9296 61.8148L16.9687 61.8432C17.0814 61.9201 17.193 61.9985 17.3037 62.0783C17.7697 62.3888 18.2416 62.6901 18.7191 62.9822L18.8698 63.0728C19.2925 63.3263 19.7197 63.5719 20.1512 63.8095L20.2992 63.8917L20.4639 63.9823C20.6286 64.073 20.7905 64.1637 20.958 64.2515L21.0278 64.2855L21.1115 64.328L21.2065 64.3762C21.2623 64.4045 21.3209 64.4328 21.3795 64.4668C21.7257 64.6397 22.0719 64.8097 22.4236 64.9768L22.5548 65.0363L22.6442 65.0788C23.5165 65.4821 24.404 65.8507 25.3046 66.1838L25.3325 66.1923L25.4498 66.2377C26.0862 66.47 26.7285 66.6854 27.376 66.8837C27.6999 66.9942 28.0265 67.1018 28.3615 67.167C57.0515 72.6807 65.3846 49.0053 65.3846 49.0053C58.3859 58.6103 45.963 61.1462 34.1905 58.3242C33.7475 58.2151 33.3097 58.0856 32.8784 57.936L32.549 57.8312C32.1247 57.6952 31.7031 57.5478 31.2844 57.3977L31.1113 57.3325C30.7344 57.1908 30.3659 57.0492 29.9946 56.8962L29.682 56.7658C29.2777 56.5977 28.8766 56.422 28.4788 56.2388L28.3503 56.1822C27.9721 56.0039 27.5961 55.8207 27.2225 55.6325L27.108 55.5702C27.0483 55.5413 26.9887 55.512 26.9294 55.4823L26.332 55.1622L26.1421 55.0602C26.08 55.0258 26.0176 54.9918 25.9551 54.9582L25.6201 54.7712C25.3018 54.5927 24.9892 54.4028 24.6765 54.213L24.5565 54.1422L24.361 54.0288C23.8751 53.7245 23.3948 53.4109 22.9205 53.0882L22.8005 53.0032C21.6091 52.1969 20.467 51.3179 19.3807 50.371C19.0488 50.0862 18.7212 49.7962 18.398 49.5012L18.3534 49.4587C17.929 49.0625 17.512 48.6582 17.1027 48.246C16.8663 48.009 16.6336 47.7681 16.4048 47.5235L16.3099 47.4272C15.9483 47.0437 15.5946 46.6526 15.249 46.2542L15.2323 46.2372L15.2267 46.2287C14.9308 45.8887 14.6405 45.5373 14.3557 45.186L14.1268 44.8998C13.8346 44.532 13.5488 44.1589 13.2697 43.7807C13.0241 43.4407 12.7812 43.1063 12.5439 42.7635C6.01142 33.3738 3.66362 20.4198 8.88683 9.78351L4.25546 15.9715Z" fill="white"/>
</g>
<defs>
<clipPath id="clip0_203_4545">
<rect width="67" height="68" fill="white"/>
</clipPath>
</defs>
</svg>
