<svg width="106" height="95" viewBox="0 0 106 95" fill="none" xmlns="http://www.w3.org/2000/svg">
<path d="M70.5562 17.8125C70.2927 17.8125 70.0399 17.9063 69.8536 18.0734C69.6672 18.2404 69.5625 18.4669 69.5625 18.7031V35.0223L65.4351 32.8641C65.1803 32.729 64.8897 32.6578 64.5937 32.6578C64.2977 32.6578 64.0072 32.729 63.7524 32.8641L53.8347 38.0475C53.5812 38.1787 53.3706 38.3674 53.2241 38.5946C53.0775 38.8217 53.0003 39.0795 53 39.3419V49.7206C53 50.255 53.318 50.7478 53.8347 51.015L63.7524 56.1984C64.0072 56.3335 64.2977 56.4047 64.5937 56.4047C64.8897 56.4047 65.1803 56.3335 65.4351 56.1984L75.3527 51.015C75.6063 50.8838 75.8169 50.6951 75.9634 50.4679C76.1099 50.2408 76.1872 49.983 76.1875 49.7206V21.4641C76.1867 21.2052 76.1104 20.9509 75.9664 20.7265C75.8223 20.5021 75.6153 20.3153 75.366 20.1845L71.0498 17.9342C70.9012 17.8556 70.7321 17.8136 70.5596 17.8125H70.5562ZM38.0937 32.6622C37.7983 32.6619 37.5081 32.7315 37.2524 32.8641L27.3347 38.0475C27.0812 38.1787 26.8706 38.3674 26.7241 38.5946C26.5775 38.8217 26.5003 39.0795 26.5 39.3419V49.7206C26.5 50.255 26.818 50.7478 27.3347 51.015L37.2524 56.1984C37.7724 56.4656 38.4117 56.4656 38.9351 56.1984L48.8527 51.015C49.1063 50.8838 49.3169 50.6951 49.4634 50.4679C49.6099 50.2408 49.6872 49.983 49.6875 49.7206V39.3419C49.6879 39.0793 49.6109 38.8214 49.4643 38.5941C49.3177 38.3668 49.1068 38.1782 48.8527 38.0475L38.9351 32.8641C38.6794 32.7315 38.3892 32.6619 38.0937 32.6622V32.6622ZM91.0937 32.6622C90.7982 32.6609 90.5076 32.7306 90.2524 32.8641L80.3347 38.0475C80.0812 38.1787 79.8706 38.3674 79.7241 38.5946C79.5775 38.8217 79.5003 39.0795 79.5 39.3419V49.7206C79.5 50.255 79.818 50.7478 80.3347 51.015L89.9542 56.2252C90.2085 56.3634 90.4997 56.4375 90.7971 56.4396C91.0945 56.4417 91.387 56.3717 91.6436 56.237L96.3739 53.773C96.4851 53.7142 96.5774 53.6305 96.6415 53.53C96.7055 53.4295 96.7392 53.3157 96.7392 53.2C96.7392 53.0843 96.7055 52.9705 96.6415 52.87C96.5774 52.7695 96.4851 52.6858 96.3739 52.627L86.125 47.215V41.8891L91.0937 39.2973L96.0625 41.8891V45.6C96.0625 46.0958 96.5262 46.173 96.8376 46.0067C98.5122 45.1305 100.188 44.2567 101.866 43.3853C102.116 43.2548 102.323 43.068 102.467 42.8436C102.611 42.6191 102.687 42.3647 102.687 42.1058V39.3448C102.688 39.0823 102.611 38.8244 102.464 38.5971C102.318 38.3698 102.107 38.1812 101.853 38.0505L91.9351 32.867C91.6796 32.7339 91.3892 32.6643 91.0937 32.6652V32.6622ZM11.5937 32.6681C11.2982 32.6668 11.0077 32.7365 10.7524 32.87L0.83475 38.0475C0.58089 38.1799 0.370211 38.3696 0.223738 38.5978C0.0772645 38.826 0.000119024 39.0846 0 39.3478V52.5973C0 53.2445 0.78175 53.6453 1.4045 53.3217L5.8035 51.0269C6.05333 50.8959 6.26059 50.7086 6.4047 50.4836C6.54881 50.2586 6.62475 50.0038 6.625 49.7444V41.898L11.5937 39.3003L16.5625 41.898V49.7444C16.563 50.0033 16.6391 50.2577 16.7832 50.4822C16.9273 50.7066 17.1344 50.8934 17.384 51.0239L21.783 53.3217C21.925 53.3959 22.0864 53.4352 22.2508 53.4356C22.4152 53.436 22.5768 53.3975 22.7193 53.324C22.8618 53.2505 22.9801 53.1447 23.0623 53.0171C23.1445 52.8895 23.1877 52.7447 23.1875 52.5973V39.3478C23.1874 39.0846 23.1102 38.826 22.9638 38.5978C22.8173 38.3696 22.6066 38.1799 22.3527 38.0475L12.4351 32.87C12.1798 32.7365 11.8893 32.6668 11.5937 32.6681V32.6681ZM64.5937 39.2944L69.5625 41.892V47.1705L64.5937 49.7681L59.625 47.1705V41.8891L64.5937 39.2914V39.2944ZM91.0937 41.5744L88.2549 43.0587V46.0216L91.0937 47.5L93.9326 46.0216V43.0587L91.0937 41.5744ZM51.0324 53.4316C50.6883 53.4298 50.3494 53.5075 50.0486 53.6572L40.7338 58.4844C40.434 58.6367 40.1849 58.8577 40.012 59.1249C39.8391 59.392 39.7487 59.6956 39.75 60.0044V69.6409C39.75 70.2614 40.1376 70.8462 40.7338 71.1609L43.1851 72.4138C44.361 72.9333 44.7949 72.9333 45.3282 72.9333C47.0839 72.9333 48.0842 71.9922 48.0842 70.3297V60.8089C48.0851 60.7764 48.0788 60.7441 48.0655 60.7139C48.0522 60.6837 48.0324 60.6562 48.0071 60.6329C47.9818 60.6097 47.9515 60.5912 47.9181 60.5786C47.8847 60.566 47.8489 60.5595 47.8126 60.5595H46.6334C46.5596 60.5595 46.4888 60.5858 46.4366 60.6326C46.3844 60.6793 46.3551 60.7428 46.3551 60.8089V70.3297C46.3551 71.0511 45.5038 71.7933 44.1159 71.1728L41.5652 69.8547C41.5236 69.8312 41.4892 69.7988 41.4649 69.7605C41.4406 69.7222 41.4273 69.6791 41.4261 69.635V59.9984C41.4261 59.9123 41.4725 59.8114 41.5686 59.7669L50.8833 54.9545C50.9279 54.9324 50.9781 54.9209 51.0291 54.9209C51.08 54.9209 51.1302 54.9324 51.1748 54.9545L60.4995 59.7639C60.5956 59.8114 60.6419 59.8975 60.6419 59.9984V69.635C60.6417 69.6812 60.6285 69.7266 60.6037 69.7671C60.5788 69.8075 60.543 69.8417 60.4995 69.8666L51.1748 74.6967C51.1302 74.7188 51.08 74.7304 51.0291 74.7304C50.9781 74.7304 50.9279 74.7188 50.8833 74.6967L48.5049 73.4261C48.4387 73.3964 48.3393 73.3816 48.2764 73.4113C47.8405 73.6617 47.3677 73.8565 46.8719 73.9902C46.7096 74.0347 46.4909 74.1237 46.958 74.3553L50.0486 76.003C50.3508 76.1503 50.6884 76.2298 51.0324 76.2345C51.3751 76.2376 51.7118 76.1532 52.0029 75.9911L61.321 71.1609C61.6207 71.0086 61.8699 70.7876 62.0428 70.5204C62.2157 70.2533 62.3061 69.9498 62.3048 69.6409V60.0044C62.3005 59.6966 62.2076 59.395 62.0353 59.1287C61.863 58.8625 61.6169 58.6406 61.321 58.4844L52.0029 53.6602C51.7072 53.5098 51.3724 53.432 51.0324 53.4345V53.4316ZM65.5643 57.8788C65.3294 57.8791 65.0969 57.921 64.88 58.0019C64.6632 58.0828 64.4662 58.2013 64.3004 58.3504C63.9656 58.6516 63.778 59.0597 63.7789 59.4848C63.7797 59.91 63.969 60.3175 64.3051 60.6176C64.6412 60.9176 65.0965 61.0858 65.5709 61.085C66.0453 61.0842 66.5 60.9146 66.8348 60.6134C67.1696 60.3122 67.3572 59.9041 67.3564 59.4789C67.3555 59.0537 67.1662 58.6463 66.8301 58.3462C66.494 58.0461 66.0387 57.878 65.5643 57.8788V57.8788ZM65.5444 58.1341C66.3858 58.1341 67.0682 58.7278 67.0682 59.4789C67.0622 59.8394 66.8997 60.1837 66.6153 60.4386C66.3308 60.6936 65.9467 60.8392 65.5444 60.8445C65.1444 60.8406 64.7624 60.6946 64.4823 60.4386C64.2023 60.1826 64.047 59.8374 64.0505 59.4789C64.0492 59.3025 64.0869 59.1275 64.1614 58.9642C64.2359 58.8009 64.3458 58.6525 64.4847 58.5274C64.6236 58.4024 64.7888 58.3033 64.9707 58.2357C65.1526 58.1682 65.3476 58.1337 65.5444 58.1341ZM64.8919 58.5705V60.3725H65.2728V59.6541H65.6306C65.7763 59.6541 65.8094 59.7075 65.8426 59.8084C65.8426 59.8233 65.9022 60.2923 65.9187 60.3784H66.3328C66.2802 60.222 66.248 60.0606 66.2367 59.8975C66.1904 59.6659 66.1771 59.5056 65.9022 59.4908C66.0479 59.4462 66.2897 59.378 66.2897 59.0455C66.2897 58.5675 65.826 58.5705 65.5842 58.5705H64.8886H64.8919ZM65.2728 58.8584H65.5974C65.6968 58.8584 65.8889 58.8584 65.8889 59.1019C65.8889 59.2028 65.8392 59.3691 65.5776 59.3631H65.2728V58.8584ZM53.53 60.3309C50.8701 60.3309 49.29 61.3492 49.29 63.0236C49.29 64.8583 50.8734 65.3481 53.4207 65.5767C56.4682 65.8528 56.7067 66.2447 56.7067 66.7791C56.7067 67.7172 55.8653 68.1061 53.8977 68.1061C51.4299 68.1061 50.8899 67.5598 50.7111 66.4614C50.6945 66.3427 50.5786 66.2566 50.4328 66.2566H49.2204C49.1842 66.2566 49.1483 66.263 49.1149 66.2756C49.0815 66.2882 49.0513 66.3067 49.026 66.33C49.0007 66.3532 48.9808 66.3807 48.9675 66.411C48.9543 66.4412 48.9479 66.4735 48.9488 66.5059C48.9488 67.9072 49.8034 69.5845 53.8811 69.5845C56.8723 69.5845 58.565 68.5455 58.565 66.7227C58.565 64.9177 57.2069 64.4367 54.3382 64.0894C51.4365 63.742 51.1483 63.5669 51.1483 62.9583C51.1483 62.4536 51.3868 61.7916 53.5333 61.7916C55.4479 61.7916 56.1634 62.1686 56.4549 63.3234C56.4881 63.4422 56.5775 63.5105 56.7067 63.5105H57.9157C57.9952 63.5105 58.0648 63.4808 58.1112 63.4392C58.1609 63.3828 58.1907 63.3264 58.1774 63.2552C57.9853 61.2602 56.5146 60.3309 53.53 60.3309V60.3309Z" fill="white"/>
</svg>
