<svg width="61" height="61" viewBox="0 0 61 61" fill="none" xmlns="http://www.w3.org/2000/svg">
<path fill-rule="evenodd" clip-rule="evenodd" d="M61 61H0V0H61V61ZM48.4199 25.8552V21.1241C47.6408 20.7772 43.1788 19.5008 39.6538 20.8459C34.576 22.7834 34.7584 28.6201 36.6853 30.9108C39.1819 33.8788 45.3923 34.9854 44.3761 37.8986C43.8498 39.4072 41.393 39.6698 39.2271 39.1633C37.21 38.6918 35.4563 37.497 35.4563 37.497V42.5063C35.4563 42.5063 37.1897 43.4727 39.3174 43.7027C42.0448 43.9973 45.4637 43.4409 47.1765 41.9186C50.2253 39.2085 50.6935 33.205 44.9158 30.4172C40.1079 28.0975 40.187 27.4355 40.2207 26.2456C40.266 24.652 43.6119 23.671 48.4199 25.8552V25.8552ZM22.4926 12.5783C26.4929 12.7174 32.3719 14.5611 32.3719 22.4229C32.3719 30.2846 25.1789 32.8643 18.6156 32.3022V43.4339H13.7262V12.6825C13.7262 12.6825 18.4919 12.4391 22.4924 12.5783H22.4926ZM23.7622 27.4321C25.8706 26.6628 27.2409 25.009 27.2409 22.4401C27.2409 19.7165 25.8464 17.872 23.7135 17.351C21.4039 16.7867 18.6156 17.1193 18.6156 17.1193V27.8472C18.6156 27.8472 22.4752 27.9018 23.7622 27.4321V27.4321Z" fill="white"/>
</svg>
