<svg width="130" height="62" viewBox="0 0 130 62" fill="none" xmlns="http://www.w3.org/2000/svg">
<path d="M65 3.09448C99.8156 3.09448 126.588 16.3933 126.588 31C126.588 45.6067 99.7953 58.9055 65 58.9055C30.1844 58.9055 3.4125 45.6067 3.4125 31C3.4125 16.3933 30.2047 3.09448 65 3.09448ZM65 0C29.1078 0 0 13.8699 0 31C0 48.1301 29.1078 62 65 62C100.892 62 130 48.1301 130 31C130 13.8699 100.892 0 65 0ZM44.3219 28.5134C42.7172 35.9733 37.05 35.1996 30.0828 35.1996L32.8656 22.1955C40.5844 22.1955 45.825 21.4403 44.3219 28.5134ZM19.7844 48.3696H27.2391L29.0063 40.1177C37.3547 40.1177 42.5344 40.6702 47.3281 36.5995C52.6297 32.1788 54.0109 24.3137 50.2328 20.372C48.2625 18.309 45.0938 17.2959 40.7875 17.2959H26.4266L19.7844 48.3696ZM57.5047 9.02555H64.9188L63.1516 17.2775C69.55 17.2775 75.4813 16.8538 78.3453 19.2484C81.3516 21.7534 79.9094 24.9584 76.6594 40.0808H69.1437C72.2719 25.4557 72.8609 24.2401 71.7234 23.1349C70.6266 22.0666 68.1281 22.2876 62.0953 22.2876L58.2766 40.0808H50.8625L57.5047 9.02555V9.02555ZM102.578 28.5134C100.953 36.0838 95.1234 35.1996 88.3391 35.1996L91.1219 22.1955C98.8813 22.1955 104.081 21.4403 102.578 28.5134V28.5134ZM78.0406 48.3696H85.5156L87.2828 40.1177C96.0578 40.1177 100.913 40.5781 105.605 36.5995C110.906 32.1788 112.288 24.3137 108.509 20.372C106.539 18.309 103.37 17.2959 99.0641 17.2959H84.7031L78.0406 48.3696V48.3696Z" fill="white"/>
</svg>
