<svg width="50" height="45" viewBox="0 0 50 45" fill="none" xmlns="http://www.w3.org/2000/svg">
<path d="M30.7829 32.6036C29.5179 34.418 28.1395 36.1491 26.656 37.7864C30.6057 41.6539 34.2814 43.4649 36.3177 42.2758C38.3587 41.0891 38.6398 36.9738 37.2957 31.5908C35.2806 32.0436 33.0908 32.3867 30.7829 32.6036ZM27.6883 32.8109C25.8969 32.8857 24.1031 32.8857 22.3117 32.8109C23.2023 33.9833 24.1023 35.0699 25 36.0612C25.8977 35.0699 26.7953 33.9833 27.6883 32.8109ZM39.5942 14.0001C45.8896 15.8207 50 18.847 50 22.5C50 26.153 45.8896 29.1793 39.5942 30.9999C41.1769 37.4099 40.6359 42.5141 37.5012 44.3394C34.3641 46.1671 29.7104 44.0892 25 39.5021C20.2896 44.0892 15.6359 46.1671 12.4988 44.3394C9.36408 42.5141 8.82075 37.4099 10.4058 30.9999C4.11037 29.1793 0 26.153 0 22.5C0 18.847 4.11037 15.8207 10.4058 14.0001C8.82311 7.5901 9.36408 2.4859 12.4988 0.660592C15.6359 -1.1671 20.2896 0.910797 25 5.49791C29.7104 0.910797 34.3641 -1.1671 37.5012 0.660592C40.6359 2.4859 41.1792 7.5901 39.5942 14.0001ZM37.2957 13.4092C38.6422 8.0238 38.3587 3.91089 36.32 2.7242C34.2814 1.53512 30.6057 3.34614 26.6583 7.21361C28.1402 8.85168 29.5178 10.5828 30.7829 12.3964C33.0932 12.6109 35.2806 12.954 37.2957 13.4092ZM12.7043 31.5908C11.3578 36.9762 11.6413 41.0891 13.68 42.2758C15.7186 43.4649 19.3943 41.6539 23.3417 37.7864C21.859 36.149 20.4813 34.4179 19.2171 32.6036C17.0271 32.4061 14.8517 32.0678 12.7043 31.5908ZM22.3117 12.1891C24.1031 12.1143 25.8969 12.1143 27.6883 12.1891C26.8391 11.0679 25.9421 9.98423 25 8.94122C24.1023 9.93251 23.2047 11.0167 22.3117 12.1891ZM19.2171 12.3964C20.4828 10.582 21.8621 8.85082 23.3464 7.21361C19.3943 3.34614 15.7162 1.53512 13.6823 2.7242C11.6413 3.91089 11.3602 8.02618 12.7043 13.4092C14.7194 12.9564 16.9092 12.6133 19.2171 12.3964ZM29.4742 30.316C31.1557 27.8267 32.6505 25.2141 33.946 22.5C32.6505 19.7859 31.1557 17.1733 29.4742 14.684C26.4956 14.4591 23.5044 14.4591 20.5258 14.684C18.8443 17.1733 17.3495 19.7859 16.0541 22.5C17.3495 25.2141 18.8443 27.8267 20.5258 30.316C23.5044 30.5409 26.4956 30.5409 29.4742 30.316ZM32.5073 30.0038C33.9601 29.8132 35.3421 29.5677 36.6413 29.2794C36.2164 27.9349 35.7341 26.6095 35.1956 25.3071C34.3641 26.9086 33.4672 28.4747 32.5073 30.0014V30.0038ZM17.4927 14.9938C16.0399 15.1845 14.6579 15.4299 13.3587 15.7182C13.7603 16.9955 14.2422 18.3251 14.8044 19.6905C15.6359 18.089 16.5328 16.5205 17.4927 14.9938ZM13.3587 29.277C14.6579 29.5653 16.0399 29.8084 17.4927 30.0014C16.5328 28.4747 15.6359 26.9086 14.8044 25.3071C14.2657 26.6086 13.7833 27.9332 13.3587 29.277ZM11.0484 28.6932C11.6649 26.7058 12.4657 24.6232 13.4343 22.4976C12.5099 20.4854 11.713 18.4161 11.0484 16.302C5.75215 17.82 2.36228 20.1242 2.36228 22.4976C2.36228 24.871 5.75215 27.1753 11.0484 28.6932ZM36.6413 15.7182C35.2742 15.4175 33.8949 15.1758 32.5073 14.9938C33.4672 16.5205 34.3641 18.0867 35.1956 19.6882C35.7578 18.3251 36.2397 16.9955 36.6413 15.7182ZM38.9516 16.302C38.3351 18.2894 37.5343 20.3721 36.5657 22.4976C37.5343 24.6232 38.3351 26.7058 38.9516 28.6932C44.2479 27.1753 47.6377 24.871 47.6377 22.4976C47.6377 20.1242 44.2479 17.82 38.9516 16.302ZM25 26.9799C24.4168 26.9799 23.8393 26.864 23.3005 26.6389C22.7617 26.4137 22.2721 26.0837 21.8597 25.6678C21.4473 25.2518 21.1202 24.7579 20.897 24.2144C20.6738 23.6709 20.5589 23.0883 20.5589 22.5C20.5589 21.9117 20.6738 21.3291 20.897 20.7856C21.1202 20.2421 21.4473 19.7482 21.8597 19.3322C22.2721 18.9163 22.7617 18.5863 23.3005 18.3611C23.8393 18.136 24.4168 18.0201 25 18.0201C26.1778 18.0201 27.3075 18.4921 28.1403 19.3322C28.9732 20.1724 29.4411 21.3119 29.4411 22.5C29.4411 23.6881 28.9732 24.8276 28.1403 25.6678C27.3075 26.5079 26.1778 26.9799 25 26.9799Z" fill="white"/>
</svg>
