<svg width="50" height="50" viewBox="0 0 50 50" fill="none" xmlns="http://www.w3.org/2000/svg">
<path d="M0 0H50V50H0V0ZM29.75 41.2778C31.1389 44 33.9444 46.0833 38.3333 46.0833C42.7778 46.0833 46.1111 43.7778 46.1111 39.5278C46.1111 35.6111 43.8611 33.8611 39.8611 32.1389L38.6944 31.6389C36.6667 30.7778 35.8056 30.1944 35.8056 28.8056C35.8056 27.6667 36.6667 26.7778 38.0556 26.7778C39.3889 26.7778 40.2778 27.3611 41.0833 28.8056L44.7222 26.3889C43.1944 23.7222 41.0278 22.6944 38.0556 22.6944C33.8611 22.6944 31.1667 25.3611 31.1667 28.8889C31.1667 32.7222 33.4167 34.5278 36.8056 35.9722L37.9722 36.4722C40.1389 37.4167 41.4167 38 41.4167 39.6111C41.4167 40.9444 40.1667 41.9167 38.2222 41.9167C35.9167 41.9167 34.5833 40.7222 33.5833 39.0556L29.75 41.2778ZM27.7778 22.9167H13.8889V27.0833H18.0556V47.2222H22.9167V27.0833H27.7778V22.9167Z" fill="white"/>
</svg>
